<?xml version="1.0" encoding="utf-8"?>
<!-- Generator: Adobe Illustrator 19.0.0, SVG Export Plug-In . SVG Version: 6.00 Build 0)  -->
<svg version="1.1" id="Layer_1" xmlns="http://www.w3.org/2000/svg" xmlns:xlink="http://www.w3.org/1999/xlink" x="0px" y="0px"
	 viewBox="-468 122.9 657.3 597" style="enable-background:new -468 122.9 657.3 597;" xml:space="preserve">
<style type="text/css">
	.st0{display:none;}
	.st1{display:inline;fill:#666666;}
	.st2{display:inline;}
	.st3{fill:#666666;}
	.st4{fill:#666766;}
	.st5{display:inline;fill:#FFFFFF;}
	.st6{fill:#FFFFFF;}
	.st7{fill:#F7B04A;}
	.st8{display:inline;fill:#008FD3;}
</style>
<g id="Shopping_Cart_GREY_666666" class="st0">
	<path class="st1" d="M-467.5,144.2c3-14.4,17.1-23.7,31.5-20.8l84.3,17.3l33.3,100l507.6,36.7L173.1,494l-454.4,31
		c-37.4,2.3-49.1,30.6-43.4,47.1c12.4-7.8,27-12.3,42.7-12.3c13.2,0,25.6,3.2,36.5,8.8c18.1,9.3,32.1,24.1,39,43.5h1.1H27.7
		c11-31.1,40.6-52.3,75.5-52.3c44.2,0,80,35.8,80,80c0,44.2-35.8,80-80,80c-34.9,0-64.5-22.7-75.5-53.8h-234.3
		c-11,31.1-40.6,53.8-75.5,53.8c-44.2,0-80-35.8-80-80c0-6.5,0.8-12.7,2.2-18.7c-11.9-15.7-18.9-35.2-18.9-56.3
		c0-45.6,32.6-83.5,75.8-91.7l-89.6-286.3l-54.1-11.1C-461.1,172.7-470.4,158.6-467.5,144.2z M103.2,666.5L103.2,666.5
		c14.7,0,26.7-11.9,26.7-26.7s-11.9-26.7-26.7-26.7h0c-14.7,0-26.7,11.9-26.7,26.7S88.4,666.5,103.2,666.5z M-297.1,661.9
		c4.3,2.9,9.4,4.6,15,4.6c9.3,0,17.4-4.7,22.2-11.9c2.8-4.2,4.5-9.3,4.5-14.8c0-14.7-11.9-26.7-26.7-26.7c-5.6,0-10.7,1.7-15,4.6
		c-7,4.8-11.7,12.9-11.7,22.1c0,6.3,2.2,12.1,5.9,16.7C-301.2,658.6-299.2,660.4-297.1,661.9z M132.1,326.8l-430.3-31.1l50.7,173.5
		l370.8-25.3L132.1,326.8z"/>
	<g id="Cart_Fill" class="st2">
		<polygon class="st3" points="-261.9,487.2 132.1,461.2 149.1,313.2 -310.9,276.2 		"/>
		<circle class="st4" cx="-286.9" cy="641.2" r="35"/>
		<circle class="st3" cx="103.6" cy="643.7" r="37.5"/>
	</g>
</g>
<g id="Shopping_Cart_WHITE_ffffff" class="st0">
	<path class="st5" d="M-467.5,144.2c3-14.4,17.1-23.7,31.5-20.8l84.3,17.3l33.3,100l507.6,36.7L173.1,494l-454.4,31
		c-37.4,2.3-49.1,30.6-43.4,47.1c12.4-7.8,27-12.3,42.7-12.3c13.2,0,25.6,3.2,36.5,8.8c18.1,9.3,32.1,24.1,39,43.5h1.1H27.7
		c11-31.1,40.6-52.3,75.5-52.3c44.2,0,80,35.8,80,80c0,44.2-35.8,80-80,80c-34.9,0-64.5-22.7-75.5-53.8h-234.3
		c-11,31.1-40.6,53.8-75.5,53.8c-44.2,0-80-35.8-80-80c0-6.5,0.8-12.7,2.2-18.7c-11.9-15.7-18.9-35.2-18.9-56.3
		c0-45.6,32.6-83.5,75.8-91.7l-89.6-286.3l-54.1-11.1C-461.1,172.7-470.4,158.6-467.5,144.2z M103.2,666.5L103.2,666.5
		c14.7,0,26.7-11.9,26.7-26.7s-11.9-26.7-26.7-26.7h0c-14.7,0-26.7,11.9-26.7,26.7S88.4,666.5,103.2,666.5z M-297.1,661.9
		c4.3,2.9,9.4,4.6,15,4.6c9.3,0,17.4-4.7,22.2-11.9c2.8-4.2,4.5-9.3,4.5-14.8c0-14.7-11.9-26.7-26.7-26.7c-5.6,0-10.7,1.7-15,4.6
		c-7,4.8-11.7,12.9-11.7,22.1c0,6.3,2.2,12.1,5.9,16.7C-301.2,658.6-299.2,660.4-297.1,661.9z M132.1,326.8l-430.3-31.1l50.7,173.5
		l370.8-25.3L132.1,326.8z"/>
	<g id="Cart_Fill_1_" class="st2">
		<polygon class="st6" points="-261.9,487.2 132.1,461.2 149.1,313.2 -310.9,276.2 		"/>
		<circle class="st6" cx="-286.9" cy="641.2" r="35"/>
		<circle class="st6" cx="103.6" cy="643.7" r="37.5"/>
	</g>
</g>
<g id="Shopping_Cart_BLACK_000000" class="st0">
	<path class="st2" d="M-467.5,144.2c3-14.4,17.1-23.7,31.5-20.8l84.3,17.3l33.3,100l507.6,36.7L173.1,494l-454.4,31
		c-37.4,2.3-49.1,30.6-43.4,47.1c12.4-7.8,27-12.3,42.7-12.3c13.2,0,25.6,3.2,36.5,8.8c18.1,9.3,32.1,24.1,39,43.5h1.1H27.7
		c11-31.1,40.6-52.3,75.5-52.3c44.2,0,80,35.8,80,80c0,44.2-35.8,80-80,80c-34.9,0-64.5-22.7-75.5-53.8h-234.3
		c-11,31.1-40.6,53.8-75.5,53.8c-44.2,0-80-35.8-80-80c0-6.5,0.8-12.7,2.2-18.7c-11.9-15.7-18.9-35.2-18.9-56.3
		c0-45.6,32.6-83.5,75.8-91.7l-89.6-286.3l-54.1-11.1C-461.1,172.7-470.4,158.6-467.5,144.2z M103.2,666.5L103.2,666.5
		c14.7,0,26.7-11.9,26.7-26.7s-11.9-26.7-26.7-26.7h0c-14.7,0-26.7,11.9-26.7,26.7S88.4,666.5,103.2,666.5z M-297.1,661.9
		c4.3,2.9,9.4,4.6,15,4.6c9.3,0,17.4-4.7,22.2-11.9c2.8-4.2,4.5-9.3,4.5-14.8c0-14.7-11.9-26.7-26.7-26.7c-5.6,0-10.7,1.7-15,4.6
		c-7,4.8-11.7,12.9-11.7,22.1c0,6.3,2.2,12.1,5.9,16.7C-301.2,658.6-299.2,660.4-297.1,661.9z M132.1,326.8l-430.3-31.1l50.7,173.5
		l370.8-25.3L132.1,326.8z"/>
	<g id="Cart_Fill_2_" class="st2">
		<polygon points="-261.9,487.2 132.1,461.2 149.1,313.2 -310.9,276.2 		"/>
		<circle cx="-286.9" cy="641.2" r="35"/>
		<circle cx="103.6" cy="643.7" r="37.5"/>
	</g>
</g>
<g id="Shopping_Cart_ORANGE_F0AB00">
	<path class="st7" d="M-467.5,144.2c3-14.4,17.1-23.7,31.5-20.8l84.3,17.3l33.3,100l507.6,36.7L173.1,494l-454.4,31
		c-37.4,2.3-49.1,30.6-43.4,47.1c12.4-7.8,27-12.3,42.7-12.3c13.2,0,25.6,3.2,36.5,8.8c18.1,9.3,32.1,24.1,39,43.5h1.1H27.7
		c11-31.1,40.6-52.3,75.5-52.3c44.2,0,80,35.8,80,80c0,44.2-35.8,80-80,80c-34.9,0-64.5-22.7-75.5-53.8h-234.3
		c-11,31.1-40.6,53.8-75.5,53.8c-44.2,0-80-35.8-80-80c0-6.5,0.8-12.7,2.2-18.7c-11.9-15.7-18.9-35.2-18.9-56.3
		c0-45.6,32.6-83.5,75.8-91.7l-89.6-286.3l-54.1-11.1C-461.1,172.7-470.4,158.6-467.5,144.2z M103.2,666.5L103.2,666.5
		c14.7,0,26.7-11.9,26.7-26.7s-11.9-26.7-26.7-26.7h0c-14.7,0-26.7,11.9-26.7,26.7S88.4,666.5,103.2,666.5z M-297.1,661.9
		c4.3,2.9,9.4,4.6,15,4.6c9.3,0,17.4-4.7,22.2-11.9c2.8-4.2,4.5-9.3,4.5-14.8c0-14.7-11.9-26.7-26.7-26.7c-5.6,0-10.7,1.7-15,4.6
		c-7,4.8-11.7,12.9-11.7,22.1c0,6.3,2.2,12.1,5.9,16.7C-301.2,658.6-299.2,660.4-297.1,661.9z M132.1,326.8l-430.3-31.1l50.7,173.5
		l370.8-25.3L132.1,326.8z"/>
	<g id="Cart_Fill_3_">
		<polygon class="st7" points="-261.9,487.2 132.1,461.2 149.1,313.2 -310.9,276.2 		"/>
		<circle class="st7" cx="-286.9" cy="641.2" r="35"/>
		<circle class="st7" cx="103.6" cy="643.7" r="37.5"/>
	</g>
</g>
<g id="Shopping_Cart_BLUE_008FD3" class="st0">
	<path class="st8" d="M-467.5,144.2c3-14.4,17.1-23.7,31.5-20.8l84.3,17.3l33.3,100l507.6,36.7L173.1,494l-454.4,31
		c-37.4,2.3-49.1,30.6-43.4,47.1c12.4-7.8,27-12.3,42.7-12.3c13.2,0,25.6,3.2,36.5,8.8c18.1,9.3,32.1,24.1,39,43.5h1.1H27.7
		c11-31.1,40.6-52.3,75.5-52.3c44.2,0,80,35.8,80,80c0,44.2-35.8,80-80,80c-34.9,0-64.5-22.7-75.5-53.8h-234.3
		c-11,31.1-40.6,53.8-75.5,53.8c-44.2,0-80-35.8-80-80c0-6.5,0.8-12.7,2.2-18.7c-11.9-15.7-18.9-35.2-18.9-56.3
		c0-45.6,32.6-83.5,75.8-91.7l-89.6-286.3l-54.1-11.1C-461.1,172.7-470.4,158.6-467.5,144.2z M103.2,666.5L103.2,666.5
		c14.7,0,26.7-11.9,26.7-26.7s-11.9-26.7-26.7-26.7h0c-14.7,0-26.7,11.9-26.7,26.7S88.4,666.5,103.2,666.5z M-297.1,661.9
		c4.3,2.9,9.4,4.6,15,4.6c9.3,0,17.4-4.7,22.2-11.9c2.8-4.2,4.5-9.3,4.5-14.8c0-14.7-11.9-26.7-26.7-26.7c-5.6,0-10.7,1.7-15,4.6
		c-7,4.8-11.7,12.9-11.7,22.1c0,6.3,2.2,12.1,5.9,16.7C-301.2,658.6-299.2,660.4-297.1,661.9z M132.1,326.8l-430.3-31.1l50.7,173.5
		l370.8-25.3L132.1,326.8z"/>
</g>
</svg>
